<?xml version="1.0" standalone="no"?>
<!DOCTYPE svg PUBLIC "-//W3C//DTD SVG 20010904//EN"
 "http://www.w3.org/TR/2001/REC-SVG-20010904/DTD/svg10.dtd">
<svg version="1.0" xmlns="http://www.w3.org/2000/svg"
 width="1000.000000pt" height="1000.000000pt" viewBox="0 0 1000.000000 1000.000000"
 preserveAspectRatio="xMidYMid meet">

<g transform="translate(0.000000,1000.000000) scale(0.100000,-0.100000)"
fill="#000000" stroke="none">
<path d="M6925 5880 c-55 -15 -120 -33 -145 -40 l-45 -12 48 -24 47 -24 0
-483 0 -482 -48 -30 -47 -30 97 -3 c53 -1 143 -1 198 0 l102 3 -46 29 -46 29
0 548 c0 302 -3 549 -7 548 -5 0 -53 -13 -108 -29z"/>
<path d="M7315 5869 c-77 -20 -142 -38 -145 -39 -3 0 16 -12 43 -26 l47 -24 0
-483 0 -482 -48 -30 -47 -30 97 -3 c53 -1 143 -1 200 0 l103 3 -47 28 -48 29
0 549 c0 302 -3 548 -7 548 -5 -1 -71 -19 -148 -40z"/>
<path d="M4270 5806 c0 -2 27 -22 60 -45 l60 -42 0 -439 0 -439 -62 -43 -61
-43 44 -3 c24 -2 177 -2 339 1 318 4 351 9 448 62 150 82 177 292 53 408 -49
46 -145 86 -210 88 -17 0 -3 8 42 23 88 29 145 70 175 126 20 38 23 56 20 112
-5 85 -40 140 -115 181 -89 47 -172 57 -499 57 -162 0 -294 -2 -294 -4z m570
-77 c60 -37 88 -91 89 -175 2 -91 -34 -161 -99 -194 -30 -15 -59 -20 -120 -20
l-80 0 0 189 c0 185 1 190 22 205 35 25 144 21 188 -5z m-7 -465 c177 -60 185
-357 13 -435 -52 -24 -162 -26 -194 -3 -22 15 -22 19 -22 235 l0 219 78 0 c46
0 98 -7 125 -16z"/>
<path d="M1504 5494 c-77 -18 -161 -68 -192 -114 -69 -102 53 -216 139 -131
27 28 29 34 29 110 0 90 8 101 74 101 84 0 115 -39 123 -154 l5 -71 -137 -54
c-172 -67 -221 -100 -257 -171 -45 -87 -33 -175 33 -235 73 -66 139 -60 267
24 l90 59 5 -41 c18 -131 195 -110 298 34 19 26 19 28 2 22 -10 -4 -31 -15
-48 -25 -16 -10 -33 -18 -37 -18 -4 0 -8 118 -10 263 -3 255 -4 263 -27 304
-31 54 -67 80 -138 98 -70 18 -138 18 -219 -1z m176 -449 l0 -144 -32 -17
c-86 -45 -147 -33 -174 32 -37 89 12 181 127 238 39 20 73 36 75 36 2 0 4 -65
4 -145z"/>
<path d="M2308 5491 c-106 -35 -197 -126 -234 -233 -29 -82 -25 -225 7 -304
48 -115 121 -180 239 -210 185 -47 356 48 395 221 l7 30 -31 -37 c-113 -133
-323 -111 -401 42 -19 37 -40 125 -40 165 l0 25 241 0 240 0 -7 58 c-15 121
-54 186 -137 227 -74 36 -198 43 -279 16z m181 -37 c43 -30 65 -119 41 -165
-20 -36 -63 -49 -170 -49 -98 0 -100 0 -100 24 0 63 59 163 112 189 42 21 87
21 117 1z"/>
<path d="M2985 5483 c-49 -13 -115 -31 -145 -40 l-55 -15 48 -24 47 -24 0
-283 0 -282 -48 -30 -47 -30 103 -3 c57 -1 147 -1 200 0 l97 3 -47 28 -48 29
0 238 0 237 41 47 c22 25 46 46 52 46 7 -1 21 -15 32 -33 30 -47 65 -63 111
-52 48 13 77 51 77 105 0 75 -55 119 -131 105 -29 -5 -53 -24 -109 -82 l-73
-76 0 82 c0 44 -3 80 -7 80 -5 -1 -48 -12 -98 -26z"/>
<path d="M3749 5496 c-185 -50 -294 -237 -261 -450 26 -167 117 -270 271 -306
158 -37 331 48 400 195 68 144 44 347 -55 464 -74 88 -230 131 -355 97z m143
-46 c34 -26 65 -102 79 -191 14 -92 6 -285 -15 -355 -56 -181 -177 -178 -234
5 -25 82 -24 352 1 435 33 107 108 154 169 106z"/>
<path d="M5505 5484 c-49 -14 -115 -32 -145 -41 l-55 -15 48 -24 47 -24 0
-283 0 -282 -45 -28 c-25 -16 -45 -31 -45 -33 0 -2 89 -4 198 -4 l197 0 -47
33 -47 32 -1 236 0 236 41 47 c22 25 46 46 52 46 7 -1 24 -18 39 -40 30 -44
64 -57 110 -44 92 27 95 177 4 207 -57 19 -96 1 -173 -80 l-73 -77 0 82 c0 45
-3 82 -7 81 -5 0 -48 -12 -98 -25z"/>
<path d="M6284 5501 c-97 -25 -195 -106 -240 -197 -100 -205 -15 -473 174
-544 180 -68 350 -10 423 145 37 78 37 99 -1 53 -42 -51 -121 -88 -187 -88
-136 0 -230 100 -249 265 l-7 55 242 0 241 0 -6 58 c-20 172 -101 248 -275
257 -46 2 -98 1 -115 -4z m155 -47 c52 -37 67 -134 27 -181 -24 -27 -27 -28
-140 -31 -131 -4 -130 -5 -105 77 34 114 147 184 218 135z"/>
<path d="M7864 5494 c-77 -19 -161 -69 -192 -114 -69 -102 53 -216 139 -131
27 27 29 35 29 105 0 88 12 106 70 106 86 0 119 -39 127 -154 l5 -71 -136 -53
c-191 -76 -245 -115 -274 -201 -47 -136 59 -272 192 -247 19 4 69 29 112 57
43 28 83 53 90 56 7 2 14 -11 18 -36 7 -47 45 -81 90 -81 67 0 110 21 170 82
32 32 56 62 53 65 -3 2 -25 -7 -50 -21 -24 -14 -46 -26 -50 -26 -3 0 -7 118
-9 263 l-3 262 -29 49 c-22 38 -39 53 -83 73 -69 32 -182 39 -269 17z m176
-454 l0 -139 -32 -17 c-85 -44 -147 -33 -173 30 -18 42 -18 59 -4 109 13 50
51 90 119 127 92 50 90 52 90 -110z"/>
</g>
</svg>
